<svg width="13" height="12" viewBox="0 0 13 12" fill="none" xmlns="http://www.w3.org/2000/svg">
<path fill-rule="evenodd" clip-rule="evenodd" d="M6.4668 11.5C9.50436 11.5 11.9668 9.03757 11.9668 6C11.9668 2.96243 9.50436 0.5 6.4668 0.5C3.42923 0.5 0.966797 2.96243 0.966797 6C0.966797 9.03757 3.42923 11.5 6.4668 11.5ZM6.4668 10.5C3.98152 10.5 1.9668 8.48528 1.9668 6C1.9668 3.51472 3.98152 1.5 6.4668 1.5C8.95208 1.5 10.9668 3.51472 10.9668 6C10.9668 8.48528 8.95208 10.5 6.4668 10.5ZM5.9668 4V6.5C5.9668 6.77614 6.19065 7 6.4668 7C6.74294 7 6.9668 6.77614 6.9668 6.5V4C6.9668 3.72386 6.74294 3.5 6.4668 3.5C6.19065 3.5 5.9668 3.72386 5.9668 4ZM6.82035 8.35355C7.01561 8.15829 7.01561 7.84171 6.82035 7.64645C6.62509 7.45118 6.30851 7.45118 6.11324 7.64645C5.91798 7.84171 5.91798 8.15829 6.11324 8.35355C6.30851 8.54882 6.62509 8.54882 6.82035 8.35355Z" fill="#FD5461"/>
</svg>
