<svg width="24" height="24" viewBox="0 0 24 24" fill="none" xmlns="http://www.w3.org/2000/svg">
<path fill-rule="evenodd" clip-rule="evenodd" d="M21.9754 18.9857C22.5355 19.9377 22.2177 21.1635 21.2656 21.7236C20.9583 21.9044 20.6082 21.9997 20.2516 21.9997H3.74841C2.64384 21.9997 1.74841 21.1043 1.74841 19.9997C1.74841 19.6431 1.84375 19.293 2.02454 18.9857L10.2761 4.95796C10.8362 4.00589 12.062 3.68809 13.014 4.24813C13.3071 4.42055 13.5514 4.66485 13.7239 4.95796L21.9754 18.9857ZM20.2516 19.9997L12 5.972L3.74841 19.9997H20.2516ZM11 10.9997V13.9997C11 14.552 11.4477 14.9997 12 14.9997C12.5523 14.9997 13 14.552 13 13.9997V10.9997C13 10.4474 12.5523 9.99969 12 9.99969C11.4477 9.99969 11 10.4474 11 10.9997ZM12.7071 17.7068C13.0976 17.3163 13.0976 16.6831 12.7071 16.2926C12.3166 15.9021 11.6834 15.9021 11.2929 16.2926C10.9024 16.6831 10.9024 17.3163 11.2929 17.7068C11.6834 18.0973 12.3166 18.0973 12.7071 17.7068Z" fill="#FD5461"/>
</svg>
